<?xml version="1.0" encoding="utf-8"?>
<!-- Generator: Adobe Illustrator 16.0.0, SVG Export Plug-In . SVG Version: 6.00 Build 0)  -->
<!DOCTYPE svg PUBLIC "-//W3C//DTD SVG 1.1//EN" "http://www.w3.org/Graphics/SVG/1.1/DTD/svg11.dtd">
<svg version="1.1" id="Layer_1" xmlns="http://www.w3.org/2000/svg" xmlns:xlink="http://www.w3.org/1999/xlink" x="0px" y="0px"
	 width="300px" height="300px" viewBox="0 0 300 300" enable-background="new 0 0 300 300" xml:space="preserve">
<circle fill="#1A1B17" cx="150" cy="150" r="149.25"/>
<path fill="#FFFFFF" d="M150.09,100.555c-27.847,0-50.309,22.462-50.309,50.309c0,27.845,22.462,50.31,50.309,50.31
	c27.848,0,50.311-22.465,50.311-50.31C200.398,123.017,177.938,100.555,150.09,100.555z M150.09,183.57
	c-17.996,0-32.708-14.668-32.708-32.707s14.667-32.708,32.708-32.708s32.708,14.668,32.708,32.708
	C182.798,168.902,168.086,183.57,150.09,183.57L150.09,183.57z M214.191,98.497c0,6.524-5.256,11.734-11.736,11.734
	c-6.521,0-11.734-5.254-11.734-11.734s5.254-11.734,11.734-11.734S214.191,92.017,214.191,98.497z M247.514,110.406
	c-0.746-15.719-4.336-29.643-15.853-41.114c-11.472-11.472-25.396-15.062-41.113-15.851c-16.2-0.918-64.758-0.918-80.959,0
	c-15.675,0.745-29.599,4.335-41.114,15.807c-11.515,11.473-15.062,25.396-15.85,41.115c-0.92,16.201-0.92,64.758,0,80.959
	c0.745,15.719,4.334,29.643,15.851,41.113c11.516,11.475,25.395,15.062,41.114,15.852c16.2,0.921,64.758,0.921,80.959,0
	c15.719-0.744,29.643-4.335,41.113-15.852c11.473-11.473,15.062-25.396,15.852-41.113
	C248.432,175.12,248.432,126.607,247.514,110.406L247.514,110.406z M226.582,208.704c-3.415,8.581-10.025,15.192-18.65,18.651
	c-12.916,5.123-43.565,3.938-57.837,3.938c-14.273,0-44.967,1.142-57.84-3.938c-8.582-3.416-15.194-10.026-18.652-18.651
	c-5.123-12.916-3.94-43.567-3.94-57.841c0-14.274-1.138-44.967,3.94-57.84c3.414-8.582,10.026-15.193,18.652-18.652
	c12.917-5.124,43.566-3.94,57.839-3.94c14.274,0,44.967-1.139,57.838,3.94c8.582,3.415,15.191,10.027,18.651,18.652
	c5.123,12.917,3.938,43.566,3.938,57.84C230.521,165.137,231.705,195.831,226.582,208.704z"/>
</svg>
