<?xml version="1.0" encoding="UTF-8"?>
<svg id="Capa_1" xmlns="http://www.w3.org/2000/svg" width="710.1" height="273" xmlns:xlink="http://www.w3.org/1999/xlink" version="1.1" viewBox="0 0 710.1 273">
  <!-- Generator: Adobe Illustrator 30.0.0, SVG Export Plug-In . SVG Version: 2.1.1 Build 123)  -->
  <g id="lCpz7n.tif">
    <image id="Capa_11" data-name="Capa_1" width="487" height="445" transform="translate(37.2 21) scale(.5)" xlink:href="logo-1.png"/>
  </g>
  <g>
    <path d="M353.8,135.9l18.7-47c.7-1.7,1.5-3,2.4-3.8,1-.9,2.1-1.3,3.5-1.3s2.6.4,3.6,1.3c1,.9,1.8,2.1,2.4,3.8l18.5,47h-8.1l-17.7-46.5h2.6l-17.8,46.5h-8.1ZM365.1,122.8v-6.5h26.8v6.5h-26.8Z" fill="#003a48"/>
    <path d="M431.6,136.8c-5.6,0-10.4-1.1-14.3-3.2-3.9-2.1-6.9-5.1-8.9-9-2.1-3.9-3.1-8.4-3.1-13.7s1-9.8,3.1-13.9c2.1-4.1,5.1-7.3,9.2-9.7,4-2.4,9-3.5,14.8-3.5s5,.3,7.1.8c2.2.5,4.1,1.2,5.7,2,1.7.8,3,1.8,4,2.8.7.7,1.3,1.4,1.7,2.1.4.7.6,1.5.6,2.3s-.3,1.8-.9,2.4c-.6.6-1.4.9-2.3.9s-1.9-.3-2.7-1c-.8-.7-1.7-1.4-2.7-2.3-1-.9-2.4-1.6-4.1-2.3-1.7-.7-3.9-1-6.7-1-4.2,0-7.6.9-10.4,2.6-2.8,1.7-4.9,4.1-6.2,7.1-1.4,3-2.1,6.5-2.1,10.5s.7,7.4,2.1,10.4c1.4,3,3.4,5.3,6.1,6.9,2.7,1.6,6,2.4,10,2.4s8.7-1.3,11.2-4c2.6-2.7,3.9-6.5,4-11.4h-16v-6.2h24c.5,9.4-1.2,16.4-5.2,21.1-4,4.7-10,7-18,7Z" fill="#003a48"/>
    <path d="M457.7,135.9l18.7-47c.7-1.7,1.5-3,2.4-3.8,1-.9,2.1-1.3,3.5-1.3s2.6.4,3.6,1.3c1,.9,1.8,2.1,2.4,3.8l18.5,47h-8.1l-17.7-46.5h2.6l-17.8,46.5h-8.1ZM468.9,122.8v-6.5h26.8v6.5h-26.8Z" fill="#003a48"/>
    <path d="M521.2,135.9l-19.9-51.2h8.2l19,51.2h-7.3ZM522.4,135.9l18.9-51.2h8.1l-19.9,51.2h-7.1Z" fill="#003a48"/>
    <path d="M557.1,135.9v-51.2h7.6v51.2h-7.6Z" fill="#003a48"/>
    <path d="M572.2,135.9l18.7-47c.7-1.7,1.5-3,2.4-3.8,1-.9,2.1-1.3,3.5-1.3s2.6.4,3.6,1.3c1,.9,1.8,2.1,2.4,3.8l18.5,47h-8.1l-17.7-46.5h2.6l-17.8,46.5h-8.1ZM583.5,122.8v-6.5h26.8v6.5h-26.8Z" fill="#003a48"/>
  </g>
  <g>
    <path d="M402,207.1l4.7-11.8c.2-.4.4-.8.6-1,.2-.2.5-.3.9-.3s.7.1.9.3c.2.2.5.5.6,1l4.7,11.8h-2l-4.5-11.7h.6l-4.5,11.7h-2ZM404.9,203.8v-1.7h6.8v1.7h-6.8Z"/>
    <path d="M416.3,207.1v-12.9h1.9v12.9h-1.9ZM417.4,201.1v-1.1h4.1c1.1,0,1.9-.2,2.4-.5.5-.3.8-.9.8-1.6s-.3-1.2-.7-1.5c-.5-.3-1.3-.5-2.4-.5h-4.1v-1.7h4.2c1.7,0,3,.3,3.9.9s1.3,1.5,1.3,2.7-.2,1.4-.6,1.9c-.4.5-1,.9-1.7,1.1-.8.2-1.7.3-2.8.3h-4.2ZM424.6,207.1c-.2-.4-.3-.8-.3-1.3,0-.5,0-1-.1-1.5s-.1-.9-.2-1.4c-.1-.4-.4-.7-.7-1-.3-.3-.8-.4-1.4-.4h-4.1v-1h4.8c.8,0,1.5,0,1.9.3.5.2.8.5,1.1.8.2.3.4.7.5,1.2s.1.9.2,1.4c0,.5,0,1,.2,1.5,0,.5.2,1,.4,1.4h-2.2Z"/>
    <path d="M428.1,207.1l4.7-11.8c.2-.4.4-.8.6-1,.2-.2.5-.3.9-.3s.7.1.9.3c.2.2.5.5.6,1l4.7,11.8h-2l-4.5-11.7h.6l-4.5,11.7h-2ZM430.9,203.8v-1.7h6.8v1.7h-6.8Z"/>
    <path d="M442.4,207.1v-11.6c0-.5.1-.8.3-1.1.2-.2.5-.4.9-.4s.6,0,.8.2c.2.2.5.4.7.7l7.1,10.2h-.9c0,0,0-11,0-11h1.8v12.9h-1.9l-7.7-11h.7c0-.1,0,11,0,11h-1.8Z"/>
    <path d="M458.5,194.2v12.9h-1.9v-12.9h1.9ZM457.6,207.1v-1.7h3.1c1.2,0,2.2-.2,3-.6.8-.4,1.4-1,1.7-1.7s.6-1.6.6-2.6c0-1.6-.4-2.7-1.3-3.5-.9-.7-2.2-1.1-4-1.1h-3.1v-1.7h3.2c2.4,0,4.3.6,5.5,1.7,1.2,1.1,1.8,2.7,1.8,4.6s-.3,2.5-.8,3.4-1.3,1.8-2.4,2.3-2.4.8-4.1.8h-3.3Z"/>
    <path d="M468.6,207.1l4.7-11.8c.2-.4.4-.8.6-1,.2-.2.5-.3.9-.3s.7.1.9.3c.2.2.5.5.6,1l4.7,11.8h-2l-4.5-11.7h.6l-4.5,11.7h-2ZM471.5,203.8v-1.7h6.8v1.7h-6.8Z"/>
    <path d="M486.9,207.3c-.9,0-1.8-.1-2.5-.3-.8-.2-1.5-.5-2-.9v-1.8c.8.5,1.6.9,2.4,1.1.8.2,1.5.4,2.3.4,1.1,0,1.8-.2,2.3-.6.5-.4.7-.9.7-1.4s-.1-.8-.4-1.1c-.3-.3-.6-.5-1.1-.7s-1-.3-1.5-.5c-.6-.1-1.1-.3-1.7-.5-.6-.2-1.1-.4-1.5-.7-.5-.3-.8-.6-1.1-1.1s-.4-1-.4-1.6.2-1.4.6-2c.4-.6.9-1,1.7-1.3.7-.3,1.6-.5,2.7-.5s1.6.1,2.2.3c.6.2,1.1.5,1.5.9.2.2.3.3.4.5.1.2.2.4.2.6s0,.4-.2.6c-.1.2-.3.2-.6.2s-.5,0-.7-.2c-.2-.2-.4-.3-.6-.6-.2-.2-.5-.4-.9-.6-.4-.2-.9-.2-1.5-.2-.9,0-1.6.2-2.1.6-.5.4-.7.9-.7,1.5s.1.8.4,1.1.6.5,1.1.7,1,.3,1.5.5c.5.1,1.1.3,1.7.5s1.1.4,1.5.7c.5.3.8.6,1.1,1.1s.4,1,.4,1.7-.2,1.4-.6,2-1,1-1.7,1.3c-.7.3-1.7.5-2.8.5Z"/>
    <path d="M501.4,207.3c-.5,0-.9,0-1.3-.1-.4,0-.7-.2-1-.3-.7-.3-1.1-.7-1.1-1.2s0-.4.2-.6c.1-.1.3-.2.5-.2s.4,0,.7.2c.2.1.5.2.8.4.3.1.7.2,1.1.2s.7,0,1-.2c.3-.1.6-.4.7-.7.2-.3.3-.8.3-1.4v-9.1h1.9v9.2c0,.9-.2,1.7-.5,2.2s-.8,1-1.4,1.3c-.6.3-1.2.4-1.9.4ZM498.4,195.9v-1.7h6.8v1.7h-6.8Z"/>
    <path d="M506.6,207.1l4.7-11.8c.2-.4.4-.8.6-1,.2-.2.5-.3.9-.3s.7.1.9.3c.2.2.5.5.6,1l4.7,11.8h-2l-4.5-11.7h.6l-4.5,11.7h-2ZM509.4,203.8v-1.7h6.8v1.7h-6.8Z"/>
    <path d="M520.9,207.1v-12.9h1.9v12.9h-1.9ZM521.7,207.1v-1.7h8.6v1.7h-8.6Z"/>
    <path d="M531.9,207.1v-12.9h1.9v12.9h-1.9Z"/>
    <path d="M541.1,207.3c-.9,0-1.8-.1-2.5-.3-.8-.2-1.5-.5-2-.9v-1.8c.8.5,1.6.9,2.4,1.1.8.2,1.5.4,2.3.4,1.1,0,1.8-.2,2.3-.6.5-.4.7-.9.7-1.4s-.1-.8-.4-1.1c-.3-.3-.6-.5-1.1-.7s-1-.3-1.5-.5c-.6-.1-1.1-.3-1.7-.5-.6-.2-1.1-.4-1.5-.7-.5-.3-.8-.6-1.1-1.1s-.4-1-.4-1.6.2-1.4.6-2c.4-.6.9-1,1.7-1.3.7-.3,1.6-.5,2.7-.5s1.6.1,2.2.3c.6.2,1.1.5,1.5.9.2.2.3.3.4.5.1.2.2.4.2.6s0,.4-.2.6c-.1.2-.3.2-.6.2s-.5,0-.7-.2c-.2-.2-.4-.3-.6-.6-.2-.2-.5-.4-.9-.6-.4-.2-.9-.2-1.5-.2-.9,0-1.6.2-2.1.6-.5.4-.7.9-.7,1.5s.1.8.4,1.1.6.5,1.1.7,1,.3,1.5.5c.5.1,1.1.3,1.7.5s1.1.4,1.5.7c.5.3.8.6,1.1,1.1s.4,1,.4,1.7-.2,1.4-.6,2-1,1-1.7,1.3c-.7.3-1.7.5-2.8.5Z"/>
    <path d="M554.4,207.3c-1.4,0-2.6-.3-3.6-.8-1-.5-1.7-1.3-2.2-2.3-.5-1-.8-2.1-.8-3.4s.3-2.5.8-3.5c.5-1,1.2-1.8,2.2-2.4,1-.6,2.2-.9,3.5-.9s1.8.1,2.5.4c.7.3,1.2.6,1.6,1,.2.2.3.4.4.5,0,.2.1.4.1.6s0,.5-.2.6c-.2.2-.4.2-.6.2s-.5,0-.7-.3c-.2-.2-.4-.4-.7-.6s-.6-.4-.9-.6-.9-.3-1.5-.3c-1,0-1.8.2-2.4.6-.7.4-1.2,1-1.5,1.8-.3.8-.5,1.6-.5,2.6s.2,1.8.5,2.6c.4.7.9,1.3,1.6,1.7.7.4,1.6.6,2.7.6s1.4,0,2.1-.3c.7-.2,1.3-.4,1.9-.8v1.7c-.5.3-1.1.5-1.8.7s-1.5.3-2.4.3Z"/>
    <path d="M560.2,200.8c0-1.3.3-2.5.8-3.5.5-1,1.3-1.8,2.2-2.4,1-.6,2.1-.9,3.5-.9s2.5.3,3.4.8c1,.5,1.7,1.3,2.2,2.3.5,1,.8,2.1.8,3.4s-.3,2.5-.8,3.5c-.5,1-1.3,1.8-2.2,2.4-1,.6-2.1.9-3.5.9s-2.5-.3-3.4-.8c-1-.5-1.7-1.3-2.2-2.3-.5-1-.8-2.1-.8-3.4ZM562.2,200.8c0,1,.2,1.8.6,2.6.4.7.9,1.3,1.5,1.7.7.4,1.4.6,2.3.6s1.7-.2,2.4-.6,1.2-1,1.5-1.8c.4-.8.5-1.7.5-2.7s-.2-1.8-.5-2.6c-.4-.7-.9-1.3-1.5-1.7-.7-.4-1.4-.6-2.3-.6s-1.7.2-2.4.6c-.7.4-1.2,1-1.5,1.8-.4.8-.5,1.7-.5,2.7Z"/>
    <path d="M445.4,229.9v-12.9h1.9v12.9h-1.9ZM446.3,223.8v-1.7h6.8c.3,0,.5,0,.7.2.2.1.3.3.3.6s0,.5-.3.6-.4.2-.7.2h-6.8ZM446.7,218.6v-1.7h8.1v1.7h-8.1ZM446.7,229.9v-1.7h8.1v1.7h-8.1Z"/>
    <path d="M461.1,230.1c-.9,0-1.8-.1-2.5-.3-.8-.2-1.5-.5-2-.9v-1.8c.8.5,1.6.9,2.4,1.1.8.2,1.5.4,2.3.4,1.1,0,1.8-.2,2.3-.6.5-.4.7-.9.7-1.4s-.1-.8-.4-1.1c-.3-.3-.6-.5-1.1-.7-.5-.2-1-.3-1.5-.5-.6-.1-1.1-.3-1.7-.5-.6-.2-1.1-.4-1.5-.7-.5-.3-.8-.6-1.1-1.1s-.4-1-.4-1.6.2-1.4.6-2c.4-.6.9-1,1.7-1.3.7-.3,1.6-.5,2.7-.5s1.6.1,2.2.3c.6.2,1.1.5,1.5.9.2.2.3.3.4.5.1.2.2.4.2.6s0,.4-.2.6c-.1.2-.3.2-.6.2s-.5,0-.7-.2c-.2-.2-.4-.3-.6-.6-.2-.2-.5-.4-.9-.6-.4-.2-.9-.2-1.5-.2-.9,0-1.6.2-2.1.6s-.7.9-.7,1.5.1.8.4,1.1c.3.3.6.5,1.1.7.5.2,1,.3,1.5.5.5.1,1.1.3,1.7.5.6.2,1.1.4,1.5.7.5.3.8.6,1.1,1.1.3.4.4,1,.4,1.7s-.2,1.4-.6,2c-.4.6-1,1-1.7,1.3s-1.7.5-2.8.5Z"/>
    <path d="M466.9,218.7v-1.7h11.4v1.7h-11.4ZM471.6,229.9v-12.9h1.9v12.9h-1.9Z"/>
    <path d="M478.6,230.1c-.4,0-.7-.1-.9-.3-.2-.2-.3-.5-.3-.8s.1-.6.3-.8c.2-.2.5-.3.9-.3s.7.1.9.3c.2.2.3.5.3.8s-.1.6-.3.8c-.2.2-.5.3-.9.3Z"/>
    <path d="M488.4,229.9c-.4,0-.7,0-1-.2-.2-.1-.4-.3-.5-.6-.1-.2-.2-.5-.2-.9,0-.8.1-1.4.4-2,.3-.5.6-1,1.1-1.4.4-.4.9-.7,1.5-.9.5-.3,1.1-.5,1.6-.7.5-.2,1-.4,1.5-.7s.8-.5,1.1-.8c.3-.3.4-.7.4-1.2s0-.7-.3-1.1c-.2-.3-.5-.6-.8-.8-.4-.2-.9-.3-1.5-.3s-1,0-1.4.3-.7.4-.9.6c-.3.2-.5.4-.7.6-.2.2-.4.3-.7.3s-.4,0-.6-.2c-.2-.2-.2-.3-.2-.6s0-.4.2-.6c.1-.2.3-.4.5-.5.4-.4.8-.7,1.5-1,.6-.3,1.4-.4,2.4-.4,1.4,0,2.5.3,3.3,1,.8.7,1.2,1.6,1.2,2.8s-.1,1.3-.4,1.8c-.3.5-.6.9-1.1,1.2-.4.3-.9.6-1.5.8-.5.2-1.1.4-1.6.6-.5.2-1,.4-1.5.7-.4.3-.8.6-1.1,1-.3.4-.4.9-.4,1.5h7.6v1.8h-8Z"/>
    <path d="M503.2,230.1c-1.1,0-2.1-.3-2.8-.8-.8-.5-1.3-1.3-1.7-2.3-.4-1-.6-2.2-.6-3.5s.2-2.5.6-3.5c.4-1,1-1.8,1.8-2.3.8-.6,1.7-.8,2.9-.8s2.1.3,2.8.8c.8.5,1.3,1.3,1.7,2.3.4,1,.6,2.2.6,3.5s-.2,2.6-.6,3.6c-.4,1-1,1.8-1.8,2.3-.8.5-1.7.8-2.8.8ZM503.2,228.4c.7,0,1.3-.2,1.7-.6.5-.4.8-1,1.1-1.7.2-.7.4-1.6.4-2.6s-.1-1.9-.4-2.6c-.2-.7-.6-1.3-1.1-1.8-.5-.4-1.1-.6-1.7-.6s-1.3.2-1.7.6c-.5.4-.8,1-1.1,1.7-.2.7-.4,1.6-.4,2.6s.1,1.9.4,2.6c.2.7.6,1.3,1.1,1.8.5.4,1.1.6,1.7.6Z"/>
    <path d="M511.6,229.9c-.4,0-.7,0-1-.2-.2-.1-.4-.3-.5-.6-.1-.2-.2-.5-.2-.9,0-.8.1-1.4.4-2,.3-.5.6-1,1.1-1.4.4-.4.9-.7,1.5-.9.5-.3,1.1-.5,1.6-.7.5-.2,1-.4,1.5-.7s.8-.5,1.1-.8c.3-.3.4-.7.4-1.2s0-.7-.3-1.1c-.2-.3-.5-.6-.8-.8-.4-.2-.9-.3-1.5-.3s-1,0-1.4.3-.7.4-.9.6c-.3.2-.5.4-.7.6-.2.2-.4.3-.7.3s-.4,0-.6-.2c-.2-.2-.2-.3-.2-.6s0-.4.2-.6c.1-.2.3-.4.5-.5.4-.4.8-.7,1.5-1,.6-.3,1.4-.4,2.4-.4,1.4,0,2.5.3,3.3,1,.8.7,1.2,1.6,1.2,2.8s-.1,1.3-.4,1.8c-.3.5-.6.9-1.1,1.2-.4.3-.9.6-1.5.8-.5.2-1.1.4-1.6.6-.5.2-1,.4-1.5.7-.4.3-.8.6-1.1,1-.3.4-.4.9-.4,1.5h7.6v1.8h-8Z"/>
    <path d="M525.6,230.1c-.8,0-1.5,0-2.2-.2-.7-.2-1.3-.4-1.8-.6v-1.7c.6.3,1.3.5,1.9.7.7.2,1.3.3,2,.3,1,0,1.9-.2,2.5-.6s.9-1,.9-1.7-.3-1.2-.8-1.6-1.4-.6-2.6-.6-.9,0-1.3,0c-.4,0-.8,0-1,0-.6,0-1-.1-1.2-.4-.2-.3-.3-.7-.2-1.3l.6-5.4h1.7l-.7,6.1-.4-.6c1.5-.3,2.7-.4,3.7-.3,1,0,1.8.3,2.4.7s1,.8,1.3,1.4c.3.6.4,1.1.4,1.8,0,.9-.2,1.7-.7,2.3-.5.6-1.1,1.1-1.9,1.4-.8.3-1.7.4-2.8.4ZM522.5,218.7v-1.7h7.9v1.7h-7.9Z"/>
  </g>
  <g>
    <path d="M296.6,173.4v-17.4h2.6v17.4h-2.6ZM298.1,166.5v-2.2h5.5c1.5,0,2.6-.3,3.3-.8s1-1.3,1-2.3-.3-1.7-1-2.1c-.7-.5-1.8-.7-3.3-.7h-5.5v-2.2h5.6c2.4,0,4.1.4,5.3,1.3,1.1.9,1.7,2.1,1.7,3.7s-.3,2-.8,2.8c-.5.8-1.3,1.4-2.3,1.9s-2.3.7-3.8.7h-5.7Z"/>
    <path d="M313.5,173.4v-17.4h2.6v17.4h-2.6ZM315,165.3v-1.5h5.5c1.5,0,2.6-.2,3.3-.7s1-1.2,1-2.1-.3-1.6-1-2.1c-.7-.4-1.8-.7-3.3-.7h-5.5v-2.2h5.6c2.3,0,4,.4,5.2,1.2s1.7,2,1.7,3.6-.3,1.9-.8,2.6c-.5.7-1.3,1.1-2.3,1.5-1,.3-2.3.5-3.8.5h-5.6ZM324.6,173.4c-.2-.5-.3-1.1-.4-1.7,0-.6-.1-1.3-.2-2,0-.7-.2-1.3-.3-1.8-.2-.6-.5-1-.9-1.3-.4-.3-1.1-.5-1.9-.5h-5.5v-1.4h6.5c1.1,0,2,.1,2.6.4.6.3,1.1.6,1.4,1.1.3.5.5,1,.6,1.6.1.6.2,1.2.2,1.8,0,.7.1,1.3.2,2s.3,1.3.6,1.9h-3Z"/>
    <path d="M331,173.4v-17.4h2.6v17.4h-2.6ZM332.2,165.2v-2.2h9.1c.4,0,.7,0,.9.3.2.2.4.5.4.8s-.1.6-.4.8c-.2.2-.6.3-.9.3h-9.1ZM332.8,158.3v-2.2h10.8v2.2h-10.8ZM332.8,173.4v-2.2h10.8v2.2h-10.8Z"/>
    <path d="M361,157c.3-.4.6-.7.9-.9.3-.2.6-.3,1-.3s.9.2,1.2.5c.3.4.4.9.4,1.6v15.5h-2.5v-15h.8s-7.4,10.8-7.4,10.8l-7.3-10.7h.8s0,14.9,0,14.9h-2.5v-15.5c0-.7.2-1.3.5-1.6.3-.4.7-.5,1.3-.5s.7.1,1,.3c.3.2.6.5.9.9l6.1,8.9h-1.2l6.1-8.9Z"/>
    <path d="M369.2,173.4v-17.4h2.6v17.4h-2.6Z"/>
    <path d="M376.2,166.6v-10.5h2.6v10.4c0,1.5.4,2.8,1.2,3.6.8.9,2,1.3,3.5,1.3s2-.2,2.7-.6,1.2-1,1.5-1.7.5-1.6.5-2.5v-10.4h2.6v10.5c0,2.2-.6,4-1.8,5.3-1.2,1.3-3.1,1.9-5.5,1.9s-2.9-.3-4-.8-1.9-1.3-2.5-2.4c-.6-1.1-.9-2.4-.9-3.9Z"/>
    <path d="M409.8,157c.3-.4.6-.7.9-.9.3-.2.6-.3,1-.3s.9.2,1.2.5c.3.4.4.9.4,1.6v15.5h-2.5v-15h.8s-7.4,10.8-7.4,10.8l-7.3-10.7h.8s0,14.9,0,14.9h-2.5v-15.5c0-.7.2-1.3.5-1.6.3-.4.7-.5,1.3-.5s.7.1,1,.3c.3.2.6.5.9.9l6.1,8.9h-1.2l6.1-8.9Z"/>
    <path d="M422.3,158.3v-2.3h15.3v2.3h-15.3ZM428.7,173.4v-17.4h2.6v17.4h-2.6Z"/>
    <path d="M440,173.4v-17.4h2.6v17.4h-2.6ZM441.2,165.2v-2.2h9.1c.4,0,.7,0,.9.3.2.2.4.5.4.8s-.1.6-.4.8c-.2.2-.6.3-.9.3h-9.1ZM441.8,158.3v-2.2h10.8v2.2h-10.8ZM441.8,173.4v-2.2h10.8v2.2h-10.8Z"/>
    <path d="M454.5,164.9c0-1.8.4-3.4,1.1-4.8s1.7-2.5,3-3.3c1.3-.8,2.9-1.2,4.7-1.2s3.3.4,4.6,1.1,2.3,1.8,2.9,3.1c.7,1.3,1,2.8,1,4.6s-.3,3.4-1,4.8-1.7,2.5-3,3.3c-1.3.8-2.9,1.2-4.7,1.2s-3.3-.4-4.6-1.1c-1.3-.7-2.3-1.8-3-3.1-.7-1.3-1-2.8-1-4.6ZM457.3,164.9c0,1.3.2,2.5.7,3.5.5,1,1.2,1.7,2.1,2.3s1.9.8,3.1.8,2.3-.3,3.2-.9c.9-.6,1.6-1.4,2.1-2.4s.7-2.2.7-3.6-.2-2.5-.7-3.4c-.5-1-1.2-1.8-2.1-2.3-.9-.5-1.9-.8-3.1-.8s-2.3.3-3.2.9c-.9.6-1.6,1.4-2.1,2.4-.5,1-.7,2.2-.7,3.6ZM462.7,172.7l2.6.2c.3.9.7,1.5,1,1.9s.7.6,1,.7c.3,0,.7.1,1,.1.6,0,1,.1,1.2.3.2.2.3.5.3.8s-.2.7-.5.9c-.3.2-.8.4-1.5.4s-1.4-.2-2-.5-1.2-.9-1.8-1.6-1-1.8-1.4-3.2Z"/>
    <path d="M475.3,166.6v-10.5h2.6v10.4c0,1.5.4,2.8,1.2,3.6.8.9,2,1.3,3.5,1.3s2-.2,2.7-.6,1.2-1,1.5-1.7.5-1.6.5-2.5v-10.4h2.6v10.5c0,2.2-.6,4-1.8,5.3-1.2,1.3-3.1,1.9-5.5,1.9s-2.9-.3-4-.8-1.9-1.3-2.5-2.4c-.6-1.1-.9-2.4-.9-3.9Z"/>
    <path d="M494.3,173.4v-17.4h2.6v17.4h-2.6Z"/>
    <path d="M501.5,173.4v-17.4h2.6v17.4h-2.6ZM502.6,173.4v-2.3h11.5v2.3h-11.5Z"/>
    <path d="M515.6,173.4l6.3-15.9c.2-.6.5-1,.8-1.3s.7-.4,1.2-.4.9.1,1.2.4c.3.3.6.7.8,1.3l6.3,15.9h-2.8l-6-15.8h.9l-6,15.8h-2.8ZM519.4,169v-2.2h9.1v2.2h-9.1Z"/>
    <path d="M543.8,156v17.4h-2.6v-17.4h2.6ZM542.6,173.4v-2.3h4.2c1.6,0,3-.3,4-.8,1.1-.5,1.8-1.3,2.3-2.3s.8-2.2.8-3.5c0-2.1-.6-3.7-1.8-4.7-1.2-1-3-1.5-5.4-1.5h-4.2v-2.3h4.3c3.3,0,5.7.8,7.3,2.3,1.6,1.5,2.4,3.6,2.4,6.2s-.3,3.3-1,4.6c-.7,1.3-1.8,2.4-3.2,3.1-1.4.7-3.2,1.1-5.4,1.1h-4.4Z"/>
    <path d="M560.1,173.4v-17.4h2.6v17.4h-2.6Z"/>
    <path d="M572.6,173.7c-1.2,0-2.4-.1-3.4-.4-1.1-.3-2-.7-2.7-1.2v-2.4c1.1.7,2.1,1.2,3.2,1.5s2.1.5,3.1.5c1.4,0,2.5-.3,3.1-.8s1-1.2,1-1.9-.2-1.1-.6-1.5c-.4-.4-.9-.7-1.5-.9s-1.3-.4-2-.6c-.7-.2-1.5-.4-2.2-.6-.7-.2-1.4-.5-2-.9-.6-.4-1.1-.8-1.5-1.4-.4-.6-.6-1.3-.6-2.2s.3-1.9.8-2.7c.5-.8,1.2-1.4,2.2-1.8,1-.4,2.2-.7,3.6-.7s2.2.2,3,.5c.8.3,1.5.7,2,1.2.2.2.4.4.6.7.1.2.2.5.2.8s0,.6-.3.8c-.2.2-.5.3-.8.3s-.6-.1-.9-.3-.6-.5-.9-.8c-.3-.3-.7-.6-1.2-.8-.5-.2-1.1-.3-2-.3-1.2,0-2.2.3-2.8.8-.6.5-1,1.2-1,2s.2,1.1.6,1.4c.4.4.9.7,1.5.9.6.2,1.3.4,2,.6s1.5.4,2.2.6,1.4.5,2,.9c.6.4,1.1.8,1.5,1.4.4.6.6,1.3.6,2.3s-.3,1.9-.8,2.7c-.5.8-1.3,1.3-2.3,1.7-1,.4-2.2.6-3.7.6Z"/>
    <path d="M580.4,158.3v-2.3h15.3v2.3h-15.3ZM586.8,173.4v-17.4h2.6v17.4h-2.6Z"/>
    <path d="M598.1,173.4v-17.4h2.6v17.4h-2.6Z"/>
    <path d="M605.3,173.4v-17.4h2.6v17.4h-2.6ZM606.4,173.4v-2.3h11.5v2.3h-11.5Z"/>
    <path d="M620.1,173.4v-17.4h2.6v17.4h-2.6ZM621.2,173.4v-2.3h11.5v2.3h-11.5Z"/>
    <path d="M634.9,173.4v-17.4h2.6v17.4h-2.6ZM636.1,165.2v-2.2h9.1c.4,0,.7,0,.9.3.2.2.4.5.4.8s-.1.6-.4.8c-.2.2-.6.3-.9.3h-9.1ZM636.6,158.3v-2.2h10.8v2.2h-10.8ZM636.6,173.4v-2.2h10.8v2.2h-10.8Z"/>
    <path d="M650.2,173.4v-17.4h2.6v17.4h-2.6ZM651.7,165.3v-1.5h5.5c1.5,0,2.6-.2,3.3-.7s1-1.2,1-2.1-.3-1.6-1-2.1c-.7-.4-1.8-.7-3.3-.7h-5.5v-2.2h5.6c2.3,0,4,.4,5.2,1.2s1.7,2,1.7,3.6-.3,1.9-.8,2.6c-.5.7-1.3,1.1-2.3,1.5-1,.3-2.3.5-3.8.5h-5.6ZM661.3,173.4c-.2-.5-.3-1.1-.4-1.7,0-.6-.1-1.3-.2-2,0-.7-.2-1.3-.3-1.8-.2-.6-.5-1-.9-1.3-.4-.3-1.1-.5-1.9-.5h-5.5v-1.4h6.5c1.1,0,2,.1,2.6.4.6.3,1.1.6,1.4,1.1.3.5.5,1,.6,1.6.1.6.2,1.2.2,1.8,0,.7.1,1.3.2,2s.3,1.3.6,1.9h-3Z"/>
    <path d="M673.1,173.7c-1.2,0-2.4-.1-3.4-.4-1.1-.3-2-.7-2.7-1.2v-2.4c1.1.7,2.1,1.2,3.2,1.5s2.1.5,3.1.5c1.4,0,2.5-.3,3.1-.8s1-1.2,1-1.9-.2-1.1-.6-1.5c-.4-.4-.9-.7-1.5-.9s-1.3-.4-2-.6c-.7-.2-1.5-.4-2.2-.6-.7-.2-1.4-.5-2-.9-.6-.4-1.1-.8-1.5-1.4-.4-.6-.6-1.3-.6-2.2s.3-1.9.8-2.7c.5-.8,1.2-1.4,2.2-1.8,1-.4,2.2-.7,3.6-.7s2.2.2,3,.5c.8.3,1.5.7,2,1.2.2.2.4.4.6.7.1.2.2.5.2.8s0,.6-.3.8c-.2.2-.5.3-.8.3s-.6-.1-.9-.3-.6-.5-.9-.8c-.3-.3-.7-.6-1.2-.8-.5-.2-1.1-.3-2-.3-1.2,0-2.2.3-2.8.8-.6.5-1,1.2-1,2s.2,1.1.6,1.4c.4.4.9.7,1.5.9.6.2,1.3.4,2,.6s1.5.4,2.2.6,1.4.5,2,.9c.6.4,1.1.8,1.5,1.4.4.6.6,1.3.6,2.3s-.3,1.9-.8,2.7c-.5.8-1.3,1.3-2.3,1.7-1,.4-2.2.6-3.7.6Z"/>
  </g>
</svg>