<?xml version="1.0" encoding="UTF-8"?>
<svg xmlns="http://www.w3.org/2000/svg" version="1.1" viewBox="0 0 879.1 273">
  <defs>
    <style>
      .cls-1 {
        fill: #b2b2b2;
      }
    </style>
  </defs>
  <!-- Generator: Adobe Illustrator 28.7.3, SVG Export Plug-In . SVG Version: 1.2.0 Build 164)  -->
  <g>
    <g id="Capa_1">
      <g>
        <path d="M44.2,188.9c-1.5-1.5-2.3-3.3-2.3-5.4v-90.9c0-8.1,4.9-12.2,14.7-12.2v97.7h47.9c3.6,0,6.5,1.1,8.4,3.4,2,2.2,3,5.4,3,9.6H49.6c-2.1,0-3.9-.8-5.4-2.3Z"/>
        <path d="M140.1,187.5c-6.8-3.4-12.2-8.1-16-14.1-3.9-6-5.8-12.6-5.8-19.9v-34.3c0-7.3,1.9-13.9,5.8-19.7,3.8-5.9,9.2-10.5,16-13.9,6.8-3.4,14.5-5.1,23.2-5.1s16.5,1.7,23.3,5.1c6.8,3.4,12.2,8,16,13.9,3.8,5.9,5.8,12.5,5.8,19.7v34.3c0,7.3-1.9,13.9-5.8,19.9-3.9,6-9.2,10.7-16.1,14.1-6.9,3.4-14.6,5.1-23.3,5.1s-16.4-1.7-23.2-5.1ZM185.9,172.6c5.4-4.8,8.1-11.2,8.1-19.2v-33.9c0-8-2.7-14.4-8.1-19.1-5.4-4.7-13-7.1-22.6-7.1s-17.1,2.4-22.5,7.1c-5.4,4.7-8.1,11.1-8.1,19.1v33.9c0,8,2.7,14.4,8.1,19.2,5.4,4.8,12.9,7.2,22.5,7.2s17.2-2.4,22.6-7.2Z"/>
        <path d="M246.6,187.6c-6.9-3.3-12.2-7.9-16.1-13.7-3.9-5.9-5.8-12.6-5.8-20.1v-35c0-7.5,1.9-14.2,5.7-20,3.8-5.8,9.1-10.4,15.8-13.6,6.8-3.2,14.5-4.8,23.3-4.8s16.5,1.4,23.3,4.1c6.8,2.8,12,6.6,15.8,11.5,3.8,4.9,5.7,10.5,5.7,16.7s-1,5.6-3.1,7.3c-2.1,1.8-4.8,2.7-8.3,2.7s-1.8-.1-3.3-.3c.2-1.2.3-3.2.3-5.9,0-4.5-1.3-8.5-3.8-12-2.6-3.5-6.1-6.3-10.8-8.3-4.6-2-9.9-3-15.8-3s-11,1.1-15.6,3.2c-4.6,2.1-8.1,5.2-10.7,9.1-2.6,3.9-3.8,8.4-3.8,13.3v35c0,5,1.3,9.5,3.9,13.4,2.6,4,6.2,7,10.9,9.2,4.7,2.2,10,3.3,15.9,3.3s11.1-1,15.7-3c4.6-2,8.2-4.8,10.8-8.4,2.5-3.6,3.8-7.8,3.8-12.3v-8.7h-19.7c-3.2,0-5.8-1.1-7.8-3.4-2-2.2-3-5.2-3-8.8h38.1c2.1,0,3.8.6,5.1,1.9,1.3,1.2,2,2.9,2,5v14.2c0,7.1-1.9,13.4-5.7,18.9-3.8,5.5-9.1,9.8-15.9,12.9-6.8,3.1-14.6,4.6-23.3,4.6s-16.7-1.6-23.6-4.9Z"/>
        <path d="M352.5,187.5c-6.8-3.4-12.2-8.1-16-14.1-3.9-6-5.8-12.6-5.8-19.9v-34.3c0-7.3,1.9-13.9,5.8-19.7,3.8-5.9,9.2-10.5,16-13.9,6.8-3.4,14.5-5.1,23.2-5.1s16.5,1.7,23.3,5.1c6.8,3.4,12.2,8,16,13.9,3.8,5.9,5.8,12.5,5.8,19.7v34.3c0,7.3-1.9,13.9-5.8,19.9-3.9,6-9.2,10.7-16.1,14.1-6.9,3.4-14.6,5.1-23.3,5.1s-16.4-1.7-23.2-5.1ZM398.4,172.6c5.4-4.8,8.1-11.2,8.1-19.2v-33.9c0-8-2.7-14.4-8.1-19.1-5.4-4.7-13-7.1-22.6-7.1s-17.1,2.4-22.5,7.1c-5.4,4.7-8.1,11.1-8.1,19.1v33.9c0,8,2.7,14.4,8.1,19.2,5.4,4.8,12.9,7.2,22.5,7.2s17.2-2.4,22.6-7.2Z"/>
      </g>
      <g>
        <path class="cls-1" d="M441.8,188.9c-1.5-1.5-2.3-3.3-2.3-5.4v-90.9c0-8.1,4.9-12.2,14.7-12.2v97.7h47.9c3.6,0,6.5,1.1,8.4,3.4,2,2.2,3,5.4,3,9.6h-66.4c-2.1,0-3.9-.8-5.4-2.3Z"/>
        <path class="cls-1" d="M537.7,187.5c-6.8-3.4-12.2-8.1-16-14.1-3.9-6-5.8-12.6-5.8-19.9v-34.3c0-7.3,1.9-13.9,5.8-19.7,3.8-5.9,9.2-10.5,16-13.9,6.8-3.4,14.5-5.1,23.2-5.1s16.5,1.7,23.3,5.1c6.8,3.4,12.2,8,16,13.9,3.8,5.9,5.8,12.5,5.8,19.7v34.3c0,7.3-1.9,13.9-5.8,19.9-3.9,6-9.2,10.7-16.1,14.1-6.9,3.4-14.6,5.1-23.3,5.1s-16.4-1.7-23.2-5.1ZM583.5,172.6c5.4-4.8,8.1-11.2,8.1-19.2v-33.9c0-8-2.7-14.4-8.1-19.1-5.4-4.7-13-7.1-22.6-7.1s-17.1,2.4-22.5,7.1c-5.4,4.7-8.1,11.1-8.1,19.1v33.9c0,8,2.7,14.4,8.1,19.2,5.4,4.8,12.9,7.2,22.5,7.2s17.2-2.4,22.6-7.2Z"/>
        <path class="cls-1" d="M644.2,187.6c-6.9-3.3-12.2-7.9-16.1-13.7-3.9-5.9-5.8-12.6-5.8-20.1v-35c0-7.5,1.9-14.2,5.7-20,3.8-5.8,9.1-10.4,15.8-13.6,6.8-3.2,14.5-4.8,23.3-4.8s16.5,1.4,23.3,4.1c6.8,2.8,12,6.6,15.8,11.5,3.8,4.9,5.7,10.5,5.7,16.7s-1,5.6-3.1,7.3c-2.1,1.8-4.8,2.7-8.3,2.7s-1.8-.1-3.3-.3c.2-1.2.3-3.2.3-5.9,0-4.5-1.3-8.5-3.8-12-2.6-3.5-6.1-6.3-10.8-8.3-4.6-2-9.9-3-15.8-3s-11,1.1-15.6,3.2c-4.6,2.1-8.1,5.2-10.7,9.1-2.6,3.9-3.8,8.4-3.8,13.3v35c0,5,1.3,9.5,3.9,13.4,2.6,4,6.2,7,10.9,9.2,4.7,2.2,10,3.3,15.9,3.3s11.1-1,15.7-3c4.6-2,8.2-4.8,10.8-8.4,2.5-3.6,3.8-7.8,3.8-12.3v-8.7h-19.7c-3.2,0-5.8-1.1-7.8-3.4-2-2.2-3-5.2-3-8.8h38.1c2.1,0,3.8.6,5.1,1.9,1.3,1.2,2,2.9,2,5v14.2c0,7.1-1.9,13.4-5.7,18.9-3.8,5.5-9.1,9.8-15.9,12.9-6.8,3.1-14.6,4.6-23.3,4.6s-16.7-1.6-23.6-4.9Z"/>
        <path class="cls-1" d="M750.2,187.5c-6.8-3.4-12.2-8.1-16-14.1-3.9-6-5.8-12.6-5.8-19.9v-34.3c0-7.3,1.9-13.9,5.8-19.7,3.8-5.9,9.2-10.5,16-13.9,6.8-3.4,14.5-5.1,23.2-5.1s16.5,1.7,23.3,5.1c6.8,3.4,12.2,8,16,13.9,3.8,5.9,5.8,12.5,5.8,19.7v34.3c0,7.3-1.9,13.9-5.8,19.9-3.9,6-9.2,10.7-16.1,14.1-6.9,3.4-14.6,5.1-23.3,5.1s-16.4-1.7-23.2-5.1ZM796,172.6c5.4-4.8,8.1-11.2,8.1-19.2v-33.9c0-8-2.7-14.4-8.1-19.1-5.4-4.7-13-7.1-22.6-7.1s-17.1,2.4-22.5,7.1c-5.4,4.7-8.1,11.1-8.1,19.1v33.9c0,8,2.7,14.4,8.1,19.2,5.4,4.8,12.9,7.2,22.5,7.2s17.2-2.4,22.6-7.2Z"/>
      </g>
    </g>
  </g>
</svg>